#!OML:ASF I:\Actors\actors\Patient Classification 1\Patient 1\Session 1\Subject1.ASF
:FULLY-SPECIFIED
:DEGREES
973
root 0.829484 17.5011 8.62773 6.6201 1.41482 -8.76531
lowerback 0.107809 1.62799 6.70693
upperback -8.6518 2.62231 1.00327
thorax -8.98145 0.830728 -2.87795
lowerneck -10.0927 -6.24113 -4.51646
upperneck 20.8028 -10.3047 10.7585
head 8.97835 -4.17857 3.25584
rclavicle -9.64106e-015 -3.61788e-014
rhumerus -54.9584 -35.6231 -54.1532
rradius 14.054
rwrist 44.3258
rhand 18.6306 -32.5529
rfingers 7.12502
rthumb 43.2573 663.293
lclavicle -9.64106e-015 -3.61788e-014
lhumerus -46.6318 26.3165 65.7205
lradius 10.9882
lwrist -40.14
lhand -19.7415 -5.43562
lfingers 7.12502
lthumb 6.58939 24.4419
rfemur -2.47599 22.6298 26.6337
rtibia 5.42456
rfoot -13.5562 -22.8308
rtoes 2.29154
lfemur 4.73639 -38.3087 -10.7738
ltibia -3.1797
lfoot -12.6592 43.2492
ltoes -1.58096
974
root 0.830107 17.5008 8.61919 6.65 1.30969 -8.72974
lowerback 0.252954 1.67909 6.77347
upperback -8.77226 2.70849 0.930649
thorax -9.18891 0.854552 -3.00529
lowerneck -9.98408 -6.28607 -4.52081
upperneck 20.9273 -10.3731 10.7092
head 9.00401 -4.21578 3.23545
rclavicle -1.28216e-014 -1.98785e-014
rhumerus -54.8953 -35.3871 -54.5401
rradius 14.1284
rwrist 43.9764
rhand 18.3868 -32.6897
rfingers 7.12502
rthumb 43.0294 663.075
lclavicle -1.28216e-014 -1.98785e-014
lhumerus -46.6138 25.7978 66.0219
lradius 11.0643
lwrist -39.5831
lhand -19.7886 -5.53935
lfingers 7.12502
lthumb 6.54386 24.3396
rfemur -2.56633 22.5721 26.5428
rtibia 5.43473
rfoot -13.4778 -22.6641
rtoes 2.11349
lfemur 4.6952 -38.3396 -10.8272
ltibia -3.11874
lfoot -12.7063 43.3516
ltoes -1.55837
975
root 0.830708 17.5011 8.61139 6.67646 1.20951 -8.6896
lowerback 0.0102055 1.6887 6.69379
upperback -8.60656 2.68942 0.97126
thorax -8.86509 0.86828 -2.90498
lowerneck -10.1515 -6.28575 -4.51144
upperneck 20.9333 -10.3455 10.5981
head 9.02797 -4.20663 3.19431
rclavicle 2.09718e-014 -6.75868e-015
rhumerus -54.2508 -35.4008 -55.0408
rradius 14.0853
rwrist 43.8341
rhand 18.0508 -32.6697
rfingers 7.12502
rthumb 42.7152 662.984
lclavicle 2.09718e-014 -6.75868e-015
lhumerus -46.2069 25.6221 66.5593
lradius 11.1252
lwrist -39.0571
lhand -19.7963 -5.57047
lfingers 7.12502
lthumb 6.5365 24.3087
rfemur -2.63785 22.5615 26.4602
rtibia 5.45852
rfoot -13.4041 -22.546
rtoes 1.7847
lfemur 4.63516 -38.1611 -10.8276
ltibia -3.12635
lfoot -12.5291 43.2816
ltoes -1.8098
976
root 0.830537 17.5018 8.60421 6.70611 1.10172 -8.66064
lowerback -0.617846 1.61524 6.43608
upperback -8.18 2.51464 1.16748
thorax -8.05338 0.845717 -2.51539
lowerneck -10.4799 -6.22008 -4.4699
upperneck 20.7289 -10.1844 10.4059
head 8.99174 -4.14167 3.13028
rclavicle -1.0138e-014 3.93594e-014
rhumerus -53.0864 -35.6048 -55.62
rradius 13.9613
rwrist 44.0355
rhand 17.6714 -32.5354
rfingers 7.12502
rthumb 42.36 662.996
lclavicle -1.0138e-014 3.93594e-014
lhumerus -45.6716 26.2824 66.8555
lradius 11.1274
lwrist -39.0705
lhand -19.6958 -5.68519
lfingers 7.12502
lthumb 6.63344 24.1909
rfemur -2.71417 22.5878 26.3981
rtibia 5.47389
rfoot -13.3046 -22.4811
rtoes 1.36391
lfemur 4.62183 -38.1122 -10.8323
ltibia -3.18264
lfoot -12.556 43.3107
ltoes -1.69331
977
root 0.830549 17.5021 8.59529 6.74714 0.958369 -8.67554
lowerback -0.271518 1.71014 6.66194
upperback -8.44325 2.68493 1.00777
thorax -8.51965 0.885545 -2.83535
lowerneck -10.2859 -6.29368 -4.39202
upperneck 20.9491 -10.3283 10.3833
head 9.03814 -4.20521 3.09913
rclavicle -8.34896e-015 -3.85642e-014
rhumerus -53.4193 -35.3866 -55.8445
rradius 14.0976
rwrist 43.6423
rhand 17.4903 -32.3851
rfingers 7.12502
rthumb 42.1903 663.089
lclavicle -8.34896e-015 -3.85642e-014
lhumerus -45.7316 25.224 67.2689
lradius 11.2665
lwrist -38.3095
lhand -19.5349 -5.76546
lfingers 7.12502
lthumb 6.7888 24.1057
rfemur -2.85604 22.5956 26.3649
rtibia 5.53761
rfoot -13.2488 -22.3731
rtoes 1.14292
lfemur 4.62541 -38.2092 -10.8197
ltibia -3.21911
lfoot -12.6074 43.4967
ltoes -1.52359
978
root 0.83083 17.5019 8.5863 6.78343 0.808053 -8.69394
lowerback -0.637124 1.70859 6.57035
upperback -8.17722 2.64041 1.13004
thorax -8.02252 0.897831 -2.63549
lowerneck -10.5001 -6.25265 -4.43792
upperneck 20.8357 -10.2334 10.3397
head 9.03094 -4.16455 3.09645
rclavicle -8.05078e-015 -2.70347e-014
rhumerus -52.5477 -35.3582 -56.4808
rradius 14.0962
rwrist 43.3603
rhand 17.3644 -32.2711
rfingers 7.12502
rthumb 42.0724 663.163
lclavicle -8.05078e-015 -2.70347e-014
lhumerus -45.2936 25.4649 67.6359
lradius 11.2971
lwrist -38.2325
lhand -19.4917 -5.76375
lfingers 7.12502
lthumb 6.83052 24.1061
rfemur -2.99327 22.5878 26.336
rtibia 5.61272
rfoot -13.258 -22.2438
rtoes 1.1115
lfemur 4.66281 -38.3324 -10.8386
ltibia -3.25761
lfoot -12.6022 43.7622
ltoes -1.48028
979
root 0.830531 17.5027 8.57946 6.81178 0.707084 -8.67081
lowerback -0.0829326 1.82478 6.81485
upperback -8.57718 2.86311 0.912799
thorax -8.75361 0.946427 -3.04143
lowerneck -10.1368 -6.32361 -4.45067
upperneck 21.0495 -10.3934 10.4645
head 9.05818 -4.23441 3.13382
rclavicle -5.56597e-015 -1.86858e-014
rhumerus -53.1124 -34.9648 -56.7324
rradius 14.3163
rwrist 42.6225
rhand 17.1621 -32.2696
rfingers 7.12502
rthumb 41.8828 663.101
lclavicle -5.56597e-015 -1.86858e-014
lhumerus -45.5778 24.393 67.8318
lradius 11.4114
lwrist -37.7199
lhand -19.4929 -5.64604
lfingers 7.12502
lthumb 6.82934 24.2238
rfemur -3.06338 22.5952 26.281
rtibia 5.60713
rfoot -13.223 -22.1898
rtoes 0.999591
lfemur 4.72803 -38.5548 -10.9332
ltibia -3.29982
lfoot -12.6765 44.105
ltoes -1.34922
980
root 0.830522 17.5044 8.57312 6.82074 0.630604 -8.65751
lowerback 0.0757329 1.85293 6.88927
upperback -8.67718 2.92078 0.864668
thorax -8.9488 0.957476 -3.14578
lowerneck -9.99297 -6.30447 -4.42722
upperneck 21.0582 -10.3729 10.4593
head 9.03071 -4.22853 3.13505
rclavicle -1.11319e-014 3.57812e-015
rhumerus -52.9741 -34.6619 -57.2149
rradius 14.4476
rwrist 42.1026
rhand 16.9653 -32.2885
rfingers 7.12502
rthumb 41.6982 663.021
lclavicle -1.11319e-014 3.57812e-015
lhumerus -45.5669 23.9591 68.0876
lradius 11.4886
lwrist -37.3622
lhand -19.5132 -5.38597
lfingers 7.12502
lthumb 6.80977 24.4845
rfemur -3.1054 22.5674 26.2416
rtibia 5.59511
rfoot -13.1691 -22.0944
rtoes 0.891957
lfemur 4.77834 -38.7423 -11.0093
ltibia -3.307
lfoot -12.7645 44.356
ltoes -1.08579
981
root 0.831201 17.5047 8.5664 6.82416 0.530957 -8.64378
lowerback 0.0551341 1.84253 6.90534
upperback -8.63318 2.90471 0.888617
thorax -8.88989 0.952411 -3.12651
lowerneck -9.97897 -6.2627 -4.42732
upperneck 20.9948 -10.2979 10.4232
head 8.99748 -4.19967 3.13188
rclavicle -2.18663e-015 -2.22639e-014
rhumerus -52.4271 -34.2534 -57.966
rradius 14.5656
rwrist 41.4839
rhand 16.8656 -32.3068
rfingers 7.12502
rthumb 41.6047 662.972
lclavicle -2.18663e-015 -2.22639e-014
lhumerus -45.408 23.8208 68.3575
lradius 11.5391
lwrist -37.0266
lhand -19.5525 -5.26927
lfingers 7.12502
lthumb 6.77187 24.6024
rfemur -3.16574 22.477 26.1892
rtibia 5.6189
rfoot -13.1082 -21.9205
rtoes 0.724742
lfemur 4.84268 -38.9086 -11.0973
ltibia -3.30435
lfoot -12.9501 44.5686
ltoes -0.641948
